<?xml version="1.0" encoding="utf-8"?>
<!-- Generator: Adobe Illustrator 21.1.0, SVG Export Plug-In . SVG Version: 6.00 Build 0)  -->
<svg version="1.1"
	 id="svg2" inkscape:version="0.91 r13725" sodipodi:docname="squares.svg" xmlns:cc="http://creativecommons.org/ns#" xmlns:dc="http://purl.org/dc/elements/1.1/" xmlns:inkscape="http://www.inkscape.org/namespaces/inkscape" xmlns:rdf="http://www.w3.org/1999/02/22-rdf-syntax-ns#" xmlns:sodipodi="http://sodipodi.sourceforge.net/DTD/sodipodi-0.dtd" xmlns:svg="http://www.w3.org/2000/svg"
	 xmlns="http://www.w3.org/2000/svg" xmlns:xlink="http://www.w3.org/1999/xlink" x="0px" y="0px" viewBox="0 0 1728 1296"
	 style="enable-background:new 0 0 1728 1296;" xml:space="preserve">
<style type="text/css">
	.st0{fill:#FFFFFF;}
	.st1{fill:none;stroke:#000000;stroke-width:0.1;stroke-linecap:round;stroke-linejoin:round;}
	.st2{fill:none;stroke:#000000;stroke-width:0.1;stroke-linecap:round;}
	.st3{fill:none;stroke:#000000;stroke-width:1.000000e-03;stroke-linecap:round;}
	.st4{fill:none;stroke:#000000;stroke-width:1.000000e-03;stroke-linecap:round;stroke-linejoin:round;}
	.st5{stroke:#000000;stroke-width:1.000000e-03;stroke-linecap:round;stroke-linejoin:round;}
</style>
<sodipodi:namedview  bordercolor="#666666" borderopacity="1.0" id="base" inkscape:bbox-nodes="false" inkscape:bbox-paths="true" inkscape:current-layer="layer1" inkscape:cx="333.14414" inkscape:cy="847.69732" inkscape:document-units="px" inkscape:guide-bbox="true" inkscape:object-nodes="true" inkscape:object-paths="true" inkscape:pageopacity="0" inkscape:pageshadow="2" inkscape:snap-bbox="true" inkscape:snap-bbox-edge-midpoints="false" inkscape:snap-bbox-midpoints="true" inkscape:snap-center="true" inkscape:snap-intersection-paths="true" inkscape:snap-nodes="true" inkscape:snap-others="false" inkscape:snap-smooth-nodes="true" inkscape:window-height="756" inkscape:window-maximized="0" inkscape:window-width="1276" inkscape:window-x="1" inkscape:window-y="3" inkscape:zoom="1.9500333" pagecolor="#afafaf" showgrid="false" showguides="false" units="in">
	<inkscape:grid  empspacing="4" id="grid4136" spacingx="0.88582677" spacingy="0.88582677" type="xygrid" units="mm">
		</inkscape:grid>
	<sodipodi:guide  id="guide5694" orientation="0,1" position="45.177179,939.86216"></sodipodi:guide>
	<sodipodi:guide  id="guide5898" orientation="0,1" position="88.582677,875.19685"></sodipodi:guide>
	<sodipodi:guide  id="guide7533" orientation="1,0" position="-119.29496,645.86333"></sodipodi:guide>
	<sodipodi:guide  id="guide7599" orientation="0,1" position="106.29921,577.55905"></sodipodi:guide>
	<sodipodi:guide  id="guide5205" orientation="1,0" position="-172.44456,642.32003"></sodipodi:guide>
	<sodipodi:guide  id="guide5207" orientation="0,1" position="92.125984,651.9685"></sodipodi:guide>
	<sodipodi:guide  id="guide5229" orientation="1,0" position="-154.72803,645.86333"></sodipodi:guide>
	<sodipodi:guide  id="guide5231" orientation="1,0" position="-147.64142,660.03658"></sodipodi:guide>
	<sodipodi:guide  id="guide5233" orientation="1,0" position="-126.38157,660.03658"></sodipodi:guide>
	<sodipodi:guide  id="guide5235" orientation="1,0" position="-101.57842,642.32003"></sodipodi:guide>
	<sodipodi:guide  id="guide5237" orientation="1,0" position="-105.12173,645.86333"></sodipodi:guide>
	<sodipodi:guide  id="guide5239" orientation="1,0" position="-168.90125,674.2098"></sodipodi:guide>
	<sodipodi:guide  id="guide5246" orientation="1,0" position="-209.62949,656.15242"></sodipodi:guide>
	<sodipodi:guide  id="guide5265" orientation="0,1" position="127.55905,800.7874"></sodipodi:guide>
	<sodipodi:guide  id="guide5267" orientation="0,1" position="177.16535,726.37795"></sodipodi:guide>
	<sodipodi:guide  id="guide5340" orientation="0,1" position="127.55905,538.58268"></sodipodi:guide>
	<sodipodi:guide  id="guide5342" orientation="1,0" position="92.125984,822.04724"></sodipodi:guide>
	<sodipodi:guide  id="guide5374" orientation="1,0" position="170.07874,651.9685"></sodipodi:guide>
	<sodipodi:guide  id="guide5436" orientation="1,0" position="212.59842,527.95275"></sodipodi:guide>
	<sodipodi:guide  id="guide5438" orientation="1,0" position="248.0315,574.01575"></sodipodi:guide>
	<sodipodi:guide  id="guide5440" orientation="1,0" position="290.55118,492.51968"></sodipodi:guide>
	<sodipodi:guide  id="guide5472" orientation="1,0" position="325.98425,577.55905"></sodipodi:guide>
	<sodipodi:guide  id="guide5683" orientation="0,1" position="131.10236,403.93701"></sodipodi:guide>
</sodipodi:namedview>
<g id="g6471" transform="translate(-141.73228,-46.06301)">
	<g id="g6393" transform="translate(-15.94488,53.149605)">
		<path id="path6395" inkscape:connector-curvature="0" sodipodi:nodetypes="ccccc" d="M-146.9-437.7h4.3v34h-4.3V-437.7z"/>
		<path id="path6397" inkscape:connector-curvature="0" sodipodi:nodetypes="ccccc" class="st0" d="M-142.7-437.7h1.4v34h-1.4
			V-437.7z"/>
		<path id="path6399" inkscape:connector-curvature="0" sodipodi:nodetypes="ccccc" d="M-141.2-437.7h4.3v34h-4.3V-437.7z"/>
		<path id="path6401" inkscape:connector-curvature="0" sodipodi:nodetypes="ccccc" class="st0" d="M-137-437.7h1.4v34h-1.4V-437.7z
			"/>
		<path id="path6403" inkscape:connector-curvature="0" sodipodi:nodetypes="ccccc" d="M-135.6-437.7h4.3v34h-4.3V-437.7z"/>
		<path id="path6405" inkscape:connector-curvature="0" sodipodi:nodetypes="ccccc" class="st0" d="M-131.3-437.7h1.4l0,34h-1.4
			V-437.7z"/>
		<path id="path6407" inkscape:connector-curvature="0" sodipodi:nodetypes="ccccc" d="M-129.9-437.7h4.3v34h-4.3V-437.7z"/>
		<path id="path6409" inkscape:connector-curvature="0" sodipodi:nodetypes="ccccc" class="st0" d="M-125.6-437.7h1.4v34h-1.4
			V-437.7z"/>
		<path id="path6411" inkscape:connector-curvature="0" sodipodi:nodetypes="ccccc" d="M-124.2-437.7h4.3l0,34h-4.3L-124.2-437.7z"
			/>
		<path id="path6413" inkscape:connector-curvature="0" sodipodi:nodetypes="ccccc" class="st0" d="M-120-437.7h1.4v34h-1.4V-437.7z
			"/>
		<path id="path6415" inkscape:connector-curvature="0" sodipodi:nodetypes="ccccc" d="M-118.6-437.7h4.3v34h-4.3V-437.7z"/>
		<path id="path6417" inkscape:connector-curvature="0" sodipodi:nodetypes="ccccc" class="st0" d="M-114.3-437.7h1.4v34h-1.4
			V-437.7z"/>
		<path id="path6419" inkscape:connector-curvature="0" sodipodi:nodetypes="ccccc" d="M-112.9-437.7h4.3v34h-4.3L-112.9-437.7z"/>
		<path id="path6421" inkscape:connector-curvature="0" sodipodi:nodetypes="ccccc" class="st0" d="M-108.6-437.7h1.4v34h-1.4
			V-437.7z"/>
		<path id="path6423" inkscape:connector-curvature="0" sodipodi:nodetypes="ccccc" d="M-107.2-437.7h4.3v34h-4.3V-437.7z"/>
		<path id="path6425" inkscape:connector-curvature="0" sodipodi:nodetypes="ccccc" class="st0" d="M-103-437.7h1.4v34h-1.4V-437.7z
			"/>
	</g>
</g>
<g id="g4435" transform="translate(-483.66142,3.3886718e-6)">
	<rect id="rect4433" x="186.9" y="-360.8" width="31.2" height="31.2"/>
	<path id="path7109" inkscape:connector-curvature="0" sodipodi:nodetypes="cccccccccc" d="M186.2-361.1l0,32.6l32.6,0l0-32.6
		L186.2-361.1z M187.6-359.7l29.7,0.1l0.1,29.7h-29.8V-359.7z"/>
	<rect id="rect7111" x="184.7" y="-362.6" class="st1" width="35.4" height="35.4"/>
	<path id="path7113" inkscape:connector-curvature="0" class="st0" d="M201.8-359.7v29.8h1.4v-29.8H201.8z"/>
	<path id="path7117" inkscape:connector-curvature="0" class="st0" d="M194.7-359.7v29.8h1.4v-29.8H194.7z"/>
	<path id="path7119" inkscape:connector-curvature="0" class="st0" d="M187.6-359.7v29.8h1.4v-29.8H187.6z"/>
	<path id="path7123" inkscape:connector-curvature="0" class="st0" d="M208.8-359.7v29.8h1.4v-29.8H208.8z"/>
	<path id="path7125" inkscape:connector-curvature="0" class="st0" d="M215.9-359.7v29.8h1.4v-29.8H215.9z"/>
</g>
<g id="g7175" transform="matrix(0.70710678,-0.70710678,0.70710678,0.70710678,-524.88695,69.623819)">
	<path id="path7173" inkscape:connector-curvature="0" sodipodi:nodetypes="ccccc" d="M527.8-37.3l21-20.9l21,20.9l-21,21
		L527.8-37.3z"/>
	
		<rect id="rect7133" x="531.1" y="-55" transform="matrix(-0.7071 -0.7071 0.7071 -0.7071 963.2758 324.3683)" class="st1" width="35.4" height="35.4"/>
	<path id="path7135" inkscape:connector-curvature="0" class="st0" d="M548.1-59.3v43.2h1.4v-43.2H548.1z"/>
	<path id="path7139" inkscape:connector-curvature="0" class="st0" d="M541-52.2v29.8h1.4v-29.8H541z"/>
	<path id="path7141" inkscape:connector-curvature="0" class="st0" d="M533.9-45.1v15.6h1.4v-15.6H533.9z"/>
	<path id="path7145" inkscape:connector-curvature="0" class="st0" d="M555.2-52.2v29.8h1.4v-29.8H555.2z"/>
	<path id="path7147" inkscape:connector-curvature="0" class="st0" d="M562.3-45.1v15.6h1.4v-15.6H562.3z"/>
	<path id="path7165" inkscape:connector-curvature="0" class="st0" d="M526.8-38v1.4h1.4V-38H526.8z"/>
	<path id="path7167" inkscape:connector-curvature="0" class="st0" d="M569.4-38v1.4h1.4V-38H569.4z"/>
	<path id="path7131" inkscape:connector-curvature="0" sodipodi:nodetypes="cccccccccc" d="M525.8-37.3l23.1,23.1l23.1-23.1
		l-23.1-23.1L525.8-37.3z M527.8-37.3l21-20.9l21,20.9l-21,21L527.8-37.3z"/>
</g>
<g id="g7219" transform="matrix(0.8660254,-0.5,0.5,0.8660254,-606.77366,51.792713)">
	<path id="path7189" inkscape:connector-curvature="0" sodipodi:nodetypes="ccccc" d="M528.2-135.8l14.9-25.7l25.7,14.8L554-120.9
		L528.2-135.8z"/>
	
		<rect id="rect7191" x="530.9" y="-159" transform="matrix(-0.866 -0.5 0.5 -0.866 1094.2909 10.6829)" class="st1" width="35.4" height="35.4"/>
	<path id="path7193" inkscape:connector-curvature="0" class="st0" d="M547.9-159v36.1h1.4V-159H547.9z"/>
	<path id="path7195" inkscape:connector-curvature="0" class="st0" d="M540.8-160.4v33.3h1.4v-33.3H540.8z"/>
	<path id="path7197" inkscape:connector-curvature="0" class="st0" d="M533.7-147.6v16.3h1.4v-16.3H533.7z"/>
	<path id="path7199" inkscape:connector-curvature="0" class="st0" d="M555-155.4v33.3h1.4l0-33.3H555z"/>
	<path id="path7201" inkscape:connector-curvature="0" class="st0" d="M562-151.2v16.3h1.4v-16.3H562z"/>
	<path id="path7207" inkscape:connector-curvature="0" sodipodi:nodetypes="cccccccccc" d="M526.3-135.3l28.2,16.3l16.3-28.2
		l-28.2-16.3L526.3-135.3z M528.2-135.8l14.9-25.7l25.7,14.8L554-120.9L528.2-135.8z"/>
</g>
<g id="g7274" transform="matrix(0.96592583,-0.25881905,0.25881905,0.96592583,-675.72675,3.1052717)">
	<path id="path7231" inkscape:connector-curvature="0" sodipodi:nodetypes="ccccc" d="M491-213.2l7.8-28.7l28.7,7.6l-7.7,28.7
		L491-213.2z"/>
	
		<rect id="rect7233" x="491.5" y="-241.5" transform="matrix(-0.9659 -0.2588 0.2588 -0.9659 1058.9846 -308.1266)" class="st1" width="35.4" height="35.4"/>
	<path id="path7235" inkscape:connector-curvature="0" class="st0" d="M508.5-240.1v32.6h1.4v-32.6H508.5z"/>
	<path id="path7237" inkscape:connector-curvature="0" class="st0" d="M501.4-241.5v31.9h1.4v-31.9H501.4z"/>
	<path id="path7239" inkscape:connector-curvature="0" class="st0" d="M494.3-230.9v19.1h1.4v-19.1H494.3z"/>
	<path id="path7241" inkscape:connector-curvature="0" class="st0" d="M515.6-237.9v32.6h1.4v-32.6H515.6z"/>
	<path id="path7243" inkscape:connector-curvature="0" class="st0" d="M522.7-236.5v19.8h1.4v-19.8H522.7z"/>
	<path id="path7245" inkscape:connector-curvature="0" sodipodi:nodetypes="cccccccccc" d="M489.2-212.2l31.5,8.4l8.4-31.5
		l-31.5-8.4L489.2-212.2z M491-213.2l7.8-28.7l28.7,7.6l-7.7,28.7L491-213.2z"/>
</g>
<g id="g7297" transform="matrix(-0.5,0.8660254,0.8660254,0.5,-362.82593,-93.64415)">
	<path id="path7299" inkscape:connector-curvature="0" sodipodi:nodetypes="ccccc" d="M-357.5,87.1l14.9-25.7l25.7,14.8l-14.9,25.8
		L-357.5,87.1z"/>
	
		<rect id="rect7301" x="-354.9" y="99.4" transform="matrix(0.5 0.866 -0.866 0.5 -97.882 332.8429)" class="st1" width="35.4" height="-35.4"/>
	<path id="path7303" inkscape:connector-curvature="0" class="st0" d="M-337.9,63.9l0,36.1h1.4V63.9H-337.9z"/>
	<path id="path7305" inkscape:connector-curvature="0" class="st0" d="M-345,62.5v33.3h1.4V62.5H-345z"/>
	<path id="path7307" inkscape:connector-curvature="0" class="st0" d="M-352.1,75.3v16.3h1.4V75.3H-352.1z"/>
	<path id="path7309" inkscape:connector-curvature="0" class="st0" d="M-330.8,67.5v33.3h1.4V67.5H-330.8z"/>
	<path id="path7311" inkscape:connector-curvature="0" class="st0" d="M-323.7,71.7V88h1.4V71.7H-323.7z"/>
	<path id="path7313" inkscape:connector-curvature="0" sodipodi:nodetypes="cccccccccc" d="M-359.5,87.6l28.2,16.3l16.3-28.2
		l-28.2-16.3L-359.5,87.6z M-357.5,87.1l14.9-25.7l25.7,14.8l-14.9,25.8L-357.5,87.1z"/>
</g>
<g id="g7315" transform="matrix(-0.25881905,0.96592583,0.96592583,0.25881905,-361.90707,-113.27333)">
	<path id="path7317" inkscape:connector-curvature="0" sodipodi:nodetypes="ccccc" d="M-313.9,219.2l7.8-28.7l28.7,7.6l-7.7,28.7
		L-313.9,219.2z"/>
	
		<rect id="rect7319" x="-313.4" y="226.4" transform="matrix(0.2588 0.9659 -0.9659 0.2588 -17.566 440.2286)" class="st1" width="35.4" height="-35.4"/>
	<path id="path7321" inkscape:connector-curvature="0" class="st0" d="M-296.4,192.4V225h1.4v-32.6H-296.4z"/>
	<path id="path7323" inkscape:connector-curvature="0" class="st0" d="M-303.4,191v31.9h1.4V191H-303.4z"/>
	<path id="path7325" inkscape:connector-curvature="0" class="st0" d="M-310.5,201.6v19.1h1.4v-19.1H-310.5z"/>
	<path id="path7327" inkscape:connector-curvature="0" class="st0" d="M-289.3,194.5v32.6h1.4v-32.6H-289.3z"/>
	<path id="path7329" inkscape:connector-curvature="0" class="st0" d="M-282.2,195.9v19.8h1.4v-19.8H-282.2z"/>
	<path id="path7331" inkscape:connector-curvature="0" sodipodi:nodetypes="cccccccccc" d="M-315.6,220.2l31.5,8.4l8.4-31.5
		l-31.5-8.4L-315.6,220.2z M-313.9,219.2l7.8-28.7l28.7,7.6l-7.7,28.7L-313.9,219.2z"/>
</g>
<g id="g4445" transform="matrix(0,-1,1,0,-310.53814,217.02756)">
	
		<rect id="rect4447" x="546" y="254.3" transform="matrix(-2.535182e-06 -1 1 -2.535182e-06 291.6668 831.4404)" width="31.2" height="31.2"/>
	<path id="path4449" inkscape:connector-curvature="0" sodipodi:nodetypes="cccccccccc" d="M545.3,254v32.6l32.6,0V254L545.3,254z
		 M546.7,255.4l29.7,0.1l0.1,29.7h-29.8V255.4z"/>
	
		<rect id="rect4451" x="543.8" y="252.6" transform="matrix(-2.535182e-06 -1 1 -2.535182e-06 291.2679 831.8394)" class="st1" width="35.4" height="35.4"/>
	<path id="path4453" inkscape:connector-curvature="0" class="st0" d="M560.8,255.4v29.8h1.4v-29.8H560.8z"/>
	<path id="path4455" inkscape:connector-curvature="0" class="st0" d="M553.8,255.4v29.8h1.4v-29.8H553.8z"/>
	<path id="path4457" inkscape:connector-curvature="0" class="st0" d="M546.7,255.4v29.8h1.4v-29.8H546.7z"/>
	<path id="path4459" inkscape:connector-curvature="0" class="st0" d="M567.9,255.4v29.8h1.4v-29.8H567.9z"/>
	<path id="path4461" inkscape:connector-curvature="0" class="st0" d="M575,255.4v29.8h1.4v-29.8H575z"/>
</g>
<g id="g4463" transform="translate(52.98384,-228.15958)">
	<rect id="rect4465" x="12.9" y="-145.5" width="31.2" height="31.2"/>
	<path id="path4467" inkscape:connector-curvature="0" sodipodi:nodetypes="cccccccccc" d="M12.2-145.8l0,32.6l32.6,0l0-32.6
		L12.2-145.8z M13.6-144.4l29.7,0.1l0.1,29.7H13.6L13.6-144.4z"/>
	<rect id="rect4469" x="10.8" y="-147.2" class="st1" width="35.4" height="35.4"/>
	<path id="path4471" inkscape:connector-curvature="0" class="st0" d="M27.8-144.4v29.8h1.4v-29.8H27.8z"/>
	<path id="path4473" inkscape:connector-curvature="0" class="st0" d="M20.7-144.4v29.8h1.4v-29.8H20.7z"/>
	<path id="path4475" inkscape:connector-curvature="0" class="st0" d="M13.6-144.4v29.8H15v-29.8H13.6z"/>
	<path id="path4477" inkscape:connector-curvature="0" class="st0" d="M34.9-144.4v29.8h1.4v-29.8H34.9z"/>
	<path id="path4479" inkscape:connector-curvature="0" class="st0" d="M41.9-144.4v29.8h1.4v-29.8H41.9z"/>
</g>
<g id="g4481" transform="matrix(0.96592583,-0.25881905,0.25881905,0.96592583,61.30748,-213.6267)">
	
		<rect id="rect4483" x="81.5" y="-141.4" transform="matrix(-1 2.625802e-06 -2.625802e-06 -1 194.1339 -251.7111)" width="31.2" height="31.2"/>
	<path id="path4485" inkscape:connector-curvature="0" sodipodi:nodetypes="cccccccccc" d="M80.8-141.8l0,32.6l32.6,0l0-32.6
		L80.8-141.8z M82.2-140.3l29.7,0.1l0.1,29.7H82.2V-140.3z"/>
	
		<rect id="rect4487" x="79.4" y="-143.2" transform="matrix(-1 2.625802e-06 -2.625802e-06 -1 194.1339 -250.9131)" class="st1" width="35.4" height="35.4"/>
	<path id="path4489" inkscape:connector-curvature="0" class="st0" d="M96.4-140.3v29.8h1.4v-29.8H96.4z"/>
	<path id="path4491" inkscape:connector-curvature="0" class="st0" d="M89.3-140.3v29.8h1.4l0-29.8H89.3z"/>
	<path id="path4493" inkscape:connector-curvature="0" class="st0" d="M82.2-140.3v29.8h1.4v-29.8H82.2z"/>
	<path id="path4495" inkscape:connector-curvature="0" class="st0" d="M103.4-140.3l0,29.8h1.4v-29.8H103.4z"/>
	<path id="path4497" inkscape:connector-curvature="0" class="st0" d="M110.5-140.3l0,29.8h1.4v-29.8H110.5z"/>
</g>
<g id="g4499" transform="matrix(0.86602541,-0.50000001,0.50000001,0.86602541,78.38977,-185.32511)">
	
		<rect id="rect4501" x="147.4" y="-123.1" transform="matrix(-1 2.341061e-06 -2.341061e-06 -1 325.9894 -215.0816)" width="31.2" height="31.2"/>
	<path id="path4503" inkscape:connector-curvature="0" sodipodi:nodetypes="cccccccccc" d="M146.7-123.4l0,32.6l32.6,0l0-32.6
		L146.7-123.4z M148.1-122l29.7,0.1l0.1,29.7l-29.8,0V-122z"/>
	
		<rect id="rect4505" x="145.3" y="-124.9" transform="matrix(-1 2.341061e-06 -2.341061e-06 -1 325.9894 -214.2836)" class="st1" width="35.4" height="35.4"/>
	<path id="path4507" inkscape:connector-curvature="0" class="st0" d="M162.3-122v29.8h1.4V-122H162.3z"/>
	<path id="path4509" inkscape:connector-curvature="0" class="st0" d="M155.2-122l0,29.8h1.4l0-29.8H155.2z"/>
	<path id="path4511" inkscape:connector-curvature="0" class="st0" d="M148.1-122l0,29.8h1.4V-122H148.1z"/>
	<path id="path4513" inkscape:connector-curvature="0" class="st0" d="M169.4-122v29.8h1.4V-122H169.4z"/>
	<path id="path4515" inkscape:connector-curvature="0" class="st0" d="M176.5-122l0,29.8h1.4l0-29.8H176.5z"/>
</g>
<g id="g4517" transform="matrix(0.70710678,-0.70710679,0.70710679,0.70710678,113.04217,-146.38758)">
	
		<rect id="rect4519" x="207.1" y="-92.2" transform="matrix(-1 2.535182e-06 -2.535182e-06 -1 445.3402 -153.1676)" width="31.2" height="31.2"/>
	<path id="path4521" inkscape:connector-curvature="0" sodipodi:nodetypes="cccccccccc" d="M206.4-92.5l0,32.6l32.6,0l0-32.6
		L206.4-92.5z M207.8-91.1l29.7,0.1l0.1,29.7h-29.8L207.8-91.1z"/>
	
		<rect id="rect4523" x="205" y="-93.9" transform="matrix(-1 2.535181e-06 -2.535181e-06 -1 445.3402 -152.3696)" class="st1" width="35.4" height="35.4"/>
	<path id="path4525" inkscape:connector-curvature="0" class="st0" d="M222-91.1v29.8h1.4v-29.8H222z"/>
	<path id="path4527" inkscape:connector-curvature="0" class="st0" d="M214.9-91.1v29.8h1.4v-29.8H214.9z"/>
	<path id="path4529" inkscape:connector-curvature="0" class="st0" d="M207.8-91.1v29.8h1.4v-29.8H207.8z"/>
	<path id="path4531" inkscape:connector-curvature="0" class="st0" d="M229-91.1v29.8h1.4v-29.8H229z"/>
	<path id="path4533" inkscape:connector-curvature="0" class="st0" d="M236.1-91.1v29.8h1.4v-29.8H236.1z"/>
</g>
<g id="g4535" transform="matrix(0.5,-0.86602541,0.86602541,0.5,157.50327,-105.66862)">
	
		<rect id="rect4537" x="258.7" y="-48.2" transform="matrix(-1 2.729302e-06 -2.729302e-06 -1 548.6016 -65.2043)" width="31.2" height="31.2"/>
	<path id="path4539" inkscape:connector-curvature="0" sodipodi:nodetypes="cccccccccc" d="M258-48.5l0,32.6l32.6,0l0-32.6L258-48.5
		z M259.4-47.1l29.7,0.1l0.1,29.7l-29.8,0V-47.1z"/>
	
		<rect id="rect4541" x="256.6" y="-49.9" transform="matrix(-1 2.729302e-06 -2.729302e-06 -1 548.6016 -64.4063)" class="st1" width="35.4" height="35.4"/>
	<path id="path4543" inkscape:connector-curvature="0" class="st0" d="M273.6-47.1v29.8h1.4v-29.8L273.6-47.1z"/>
	<path id="path4545" inkscape:connector-curvature="0" class="st0" d="M266.5-47.1v29.8h1.4l0-29.8H266.5z"/>
	<path id="path4547" inkscape:connector-curvature="0" class="st0" d="M259.4-47.1v29.8h1.4v-29.8H259.4z"/>
	<path id="path4549" inkscape:connector-curvature="0" class="st0" d="M280.7-47.1l0,29.8l1.4,0v-29.8H280.7z"/>
	<path id="path4551" inkscape:connector-curvature="0" class="st0" d="M287.8-47.1l0,29.8h1.4v-29.8H287.8z"/>
</g>
<g id="g4553" transform="matrix(0.25881904,-0.96592583,0.96592583,0.25881904,204.3332,-58.046876)">
	
		<rect id="rect4555" x="301.4" y="7.9" transform="matrix(-1 2.444561e-06 -2.444561e-06 -1 633.9153 47.0098)" width="31.2" height="31.2"/>
	<path id="path4557" inkscape:connector-curvature="0" sodipodi:nodetypes="cccccccccc" d="M300.7,7.6l0,32.6l32.6,0V7.6L300.7,7.6z
		 M302.1,9l29.7,0.1l0.1,29.7l-29.8,0V9z"/>
	
		<rect id="rect4559" x="299.2" y="6.2" transform="matrix(-1 2.444561e-06 -2.444561e-06 -1 633.9153 47.8078)" class="st1" width="35.4" height="35.4"/>
	<path id="path4561" inkscape:connector-curvature="0" class="st0" d="M316.2,9v29.8h1.4V9H316.2z"/>
	<path id="path4563" inkscape:connector-curvature="0" class="st0" d="M309.2,9v29.8h1.4V9H309.2z"/>
	<path id="path4565" inkscape:connector-curvature="0" class="st0" d="M302.1,9v29.8l1.4,0l0-29.8H302.1z"/>
	<path id="path4567" inkscape:connector-curvature="0" class="st0" d="M323.3,9v29.8h1.4V9H323.3z"/>
	<path id="path4569" inkscape:connector-curvature="0" class="st0" d="M330.4,9v29.8h1.4V9H330.4z"/>
</g>
<g id="g4571" transform="matrix(0,-1,1,0,261.76335,-11.930446)">
	
		<rect id="rect4573" x="330.5" y="73.2" transform="matrix(-2.535182e-06 -1 1 -2.535182e-06 257.3213 434.8542)" width="31.2" height="31.2"/>
	<path id="path4575" inkscape:connector-curvature="0" sodipodi:nodetypes="cccccccccc" d="M329.8,72.9v32.6l32.6,0l0-32.6
		L329.8,72.9z M331.2,74.3l29.7,0.1L361,104h-29.8V74.3z"/>
	
		<rect id="rect4577" x="328.4" y="71.4" transform="matrix(-2.535182e-06 -1 1 -2.535182e-06 256.9223 435.2532)" class="st1" width="35.4" height="35.4"/>
	<path id="path4579" inkscape:connector-curvature="0" class="st0" d="M345.4,74.3V104h1.4V74.3H345.4z"/>
	<path id="path4581" inkscape:connector-curvature="0" class="st0" d="M338.3,74.3V104h1.4V74.3H338.3z"/>
	<path id="path4583" inkscape:connector-curvature="0" class="st0" d="M331.2,74.3V104h1.4V74.3H331.2z"/>
	<path id="path4585" inkscape:connector-curvature="0" class="st0" d="M352.5,74.3V104h1.4V74.3H352.5z"/>
	<path id="path4587" inkscape:connector-curvature="0" class="st0" d="M359.6,74.3V104h1.4V74.3H359.6z"/>
</g>
<path id="path5301" inkscape:connector-curvature="0" sodipodi:nodetypes="ccccccccc" class="st2" d="M145.2-126.6H88.5v-11.3h19.8
	v-11.3h17v11.3h19.8L145.2-126.6z"/>
<path id="path5303" inkscape:connector-curvature="0" sodipodi:nodetypes="ccccccccccccccc" class="st2" d="M88.5-123.7h56.7v11.3
	h-2.8v11.3h-5.7H131v-11.3h-28.3v11.3H97h-5.7l0-11.3h-2.8L88.5-123.7z"/>
<rect id="rect5305" x="88.5" y="-98.2" class="st1" width="56.7" height="62.4"/>
<rect id="rect5307" x="91.4" y="-72.7" class="st2" width="11.3" height="11.3"/>
<rect id="rect5309" x="131" y="-72.7" class="st2" width="11.3" height="11.3"/>
<rect id="rect5311" x="91.4" y="-50" class="st2" width="11.3" height="11.3"/>
<rect id="rect5313" x="108.4" y="-84" class="st2" width="17" height="11.3"/>
<rect id="rect5315" x="91.4" y="-95.4" class="st2" width="11.3" height="11.3"/>
<rect id="rect5317" x="131" y="-95.4" class="st2" width="11.3" height="11.3"/>
<rect id="rect5319" x="131" y="-50" class="st2" width="11.3" height="11.3"/>
<rect id="rect5321" x="108.4" y="-61.4" class="st2" width="17" height="11.3"/>
<path id="path5323" inkscape:connector-curvature="0" sodipodi:nodetypes="ccccccccccccccc" class="st2" d="M88.5-160.6h56.7v11.3
	h-2.8l0,11.3h-5.7H131v-11.3h-28.3l0,11.3H97h-5.7v-11.3h-2.8L88.5-160.6z"/>
<path id="path5325" inkscape:connector-curvature="0" sodipodi:nodetypes="ccccccccc" class="st2" d="M145.2-160.6H88.5v-11.3h19.8
	v-11.3h17v11.3h19.8L145.2-160.6z"/>
<path id="path5327" inkscape:connector-curvature="0" sodipodi:nodetypes="ccccccccccccccc" class="st2" d="M88.5-194.6h56.7v11.3
	h-2.8l0,11.3h-5.7H131v-11.3h-28.3l0,11.3H97h-5.7v-11.3h-2.8L88.5-194.6z"/>
<path id="path5364" inkscape:connector-curvature="0" sodipodi:nodetypes="ccccccccc" class="st3" d="M-374.6,426.4l14.7-54.8
	l11,2.9l-5.1,19.2l11,2.9l-4.4,16.4l-11-2.9l-5.1,19.2L-374.6,426.4z"/>
<path id="path5366" inkscape:connector-curvature="0" sodipodi:nodetypes="ccccccccccccccc" class="st3" d="M-374.6,247.8l14.7-54.8
	l11,2.9l-0.7,2.7l11,2.9l-1.5,5.5l-1.5,5.5l-11-2.9L-360,237l11,2.9l-1.5,5.5l-1.5,5.5l-11-2.9l-0.7,2.7L-374.6,247.8z"/>
<path id="path5368" inkscape:connector-curvature="0" sodipodi:nodetypes="ccccccccccccccc" class="st3" d="M-374.6,366.9l14.7-54.8
	l11,2.9l-0.7,2.7l11,2.9l-1.5,5.5l-1.5,5.5l-11-2.9l-7.3,27.4l11,2.9l-1.5,5.5l-1.5,5.5l-11-2.9l-0.7,2.7L-374.6,366.9z"/>
<path id="path5370" inkscape:connector-curvature="0" sodipodi:nodetypes="ccccccccc" class="st3" d="M-374.6,307.3l14.7-54.8
	l11,2.9l-5.1,19.2l11,2.9l-4.4,16.4l-11-2.9l-5.1,19.2L-374.6,307.3z"/>
<path id="path5372" inkscape:connector-curvature="0" sodipodi:nodetypes="ccccccccccccccc" class="st3" d="M-374.6,188.3l14.7-54.8
	l11,2.9l-0.7,2.7l11,2.9l-1.5,5.5l-1.5,5.5l-11-2.9l-7.3,27.4l11,2.9l-1.5,5.5l-1.5,5.5l-11-2.9l-0.7,2.7L-374.6,188.3z"/>
<path id="path5426" inkscape:connector-curvature="0" sodipodi:nodetypes="ccccccccc" class="st3" d="M-317.9,420.8l28.3-49.1
	l9.8,5.7l-9.9,17.2l9.8,5.7l-8.5,14.7l-9.8-5.7l-9.9,17.2L-317.9,420.8z"/>
<path id="path5428" inkscape:connector-curvature="0" sodipodi:nodetypes="ccccccccccccccc" class="st3" d="M-317.9,242.2l28.3-49.1
	l9.8,5.7l-1.4,2.5l9.8,5.7l-2.8,4.9l-2.8,4.9l-9.8-5.7l-14.2,24.5l9.8,5.7l-2.8,4.9l-2.8,4.9l-9.8-5.7l-1.4,2.5L-317.9,242.2z"/>
<path id="path5430" inkscape:connector-curvature="0" sodipodi:nodetypes="ccccccccccccccc" class="st3" d="M-317.9,361.3l28.3-49.1
	l9.8,5.7l-1.4,2.5l9.8,5.7l-2.8,4.9l-2.8,4.9l-9.8-5.7l-14.2,24.5l9.8,5.7l-2.8,4.9l-2.8,4.9l-9.8-5.7l-1.4,2.5L-317.9,361.3z"/>
<path id="path5432" inkscape:connector-curvature="0" sodipodi:nodetypes="ccccccccc" class="st3" d="M-317.9,301.8l28.3-49.1
	l9.8,5.7l-9.9,17.2l9.8,5.7l-8.5,14.7l-9.8-5.7l-9.9,17.2L-317.9,301.8z"/>
<path id="path5434" inkscape:connector-curvature="0" sodipodi:nodetypes="ccccccccccccccc" class="st3" d="M-317.9,182.7l28.3-49.1
	l9.8,5.7l-1.4,2.5l9.8,5.7l-2.8,4.9l-2.8,4.9l-9.8-5.7l-14.2,24.5l9.8,5.7l-2.8,4.9l-2.8,4.9l-9.8-5.7l-1.4,2.5L-317.9,182.7z"/>
<path id="path5462" inkscape:connector-curvature="0" sodipodi:nodetypes="ccccccccc" class="st3" d="M-259.7,414l40.1-40.1l8,8
	l-14,14l8,8l-12,12l-8-8l-14,14L-259.7,414z"/>
<path id="path5464" inkscape:connector-curvature="0" sodipodi:nodetypes="ccccccccccccccc" class="st3" d="M-259.7,235.4l40.1-40.1
	l8,8l-2,2l8,8l-4,4l-4,4l-8-8l-20,20l8,8l-4,4l-4,4l-8-8l-2,2L-259.7,235.4z"/>
<path id="path5466" inkscape:connector-curvature="0" sodipodi:nodetypes="ccccccccccccccc" class="st3" d="M-259.7,354.4l40.1-40.1
	l8,8l-2,2l8,8l-4,4l-4,4l-8-8l-20,20l8,8l-4,4l-4,4l-8-8l-2,2L-259.7,354.4z"/>
<path id="path5468" inkscape:connector-curvature="0" sodipodi:nodetypes="ccccccccc" class="st3" d="M-259.7,294.9l40.1-40.1l8,8
	l-14,14l8,8l-12,12l-8-8l-14,14L-259.7,294.9z"/>
<path id="path5470" inkscape:connector-curvature="0" sodipodi:nodetypes="ccccccccccccccc" class="st3" d="M-259.7,175.9l40.1-40.1
	l8,8l-2,2l8,8l-4,4l-4,4l-8-8l-20,20l8,8l-4,4l-4,4l-8-8l-2,2L-259.7,175.9z"/>
<rect id="rect5595" x="-386.4" y="434.5" class="st4" width="59.5" height="59.5"/>
<g id="g5597">
	<rect id="rect5599" x="-382.2" y="458.6" class="st3" width="11.3" height="11.3"/>
	<rect id="rect5601" x="-342.5" y="458.6" class="st3" width="11.3" height="11.3"/>
	<rect id="rect5603" x="-382.2" y="481.3" class="st3" width="11.3" height="11.3"/>
	<rect id="rect5605" x="-365.2" y="447.3" class="st3" width="17" height="11.3"/>
	<rect id="rect5607" x="-382.2" y="436" class="st3" width="11.3" height="11.3"/>
	<rect id="rect5609" x="-342.5" y="436" class="st3" width="11.3" height="11.3"/>
	<rect id="rect5611" x="-342.5" y="481.3" class="st3" width="11.3" height="11.3"/>
	<rect id="rect5613" x="-365.2" y="470" class="st3" width="17" height="11.3"/>
</g>
<rect id="rect5617" x="-323.7" y="434.5" class="st4" width="59.5" height="59.5"/>
<g id="g5619">
	<rect id="rect5621" x="-319.5" y="458.6" class="st3" width="11.3" height="11.3"/>
	<rect id="rect5623" x="-279.8" y="458.6" class="st3" width="11.3" height="11.3"/>
	<rect id="rect5625" x="-319.5" y="481.3" class="st3" width="11.3" height="11.3"/>
	<rect id="rect5627" x="-302.5" y="447.3" class="st3" width="17" height="11.3"/>
	<rect id="rect5629" x="-319.5" y="436" class="st3" width="11.3" height="11.3"/>
	<rect id="rect5631" x="-279.8" y="436" class="st3" width="11.3" height="11.3"/>
	<rect id="rect5633" x="-279.8" y="481.3" class="st3" width="11.3" height="11.3"/>
	<rect id="rect5635" x="-302.5" y="470" class="st3" width="17" height="11.3"/>
</g>
<rect id="rect5639" x="-258.5" y="434.5" class="st4" width="59.5" height="59.5"/>
<g id="g5641">
	<rect id="rect5643" x="-254.3" y="458.6" class="st3" width="11.3" height="11.3"/>
	<rect id="rect5645" x="-214.6" y="458.6" class="st3" width="11.3" height="11.3"/>
	<rect id="rect5647" x="-254.3" y="481.3" class="st3" width="11.3" height="11.3"/>
	<rect id="rect5649" x="-237.3" y="447.3" class="st3" width="17" height="11.3"/>
	<rect id="rect5651" x="-254.3" y="436" class="st3" width="11.3" height="11.3"/>
	<rect id="rect5653" x="-214.6" y="436" class="st3" width="11.3" height="11.3"/>
	<rect id="rect5655" x="-214.6" y="481.3" class="st3" width="11.3" height="11.3"/>
	<rect id="rect5657" x="-237.3" y="470" class="st3" width="17" height="11.3"/>
</g>
<rect id="rect5687" x="497.6" y="-397.7" transform="matrix(0.9659 -0.2588 0.2588 0.9659 113.2006 123.9655)" class="st4" width="59.5" height="59.5"/>
<g id="g5689" transform="translate(17.716367,616.53543)">
	
		<rect id="rect5691" x="480.9" y="-1013" transform="matrix(0.9659 -0.2588 0.2588 0.9659 272.2057 98.2463)" width="56.7" height="56.7"/>
	<path id="path5693" inkscape:connector-curvature="0" sodipodi:nodetypes="cccccccccc" class="st0" d="M474.5-1004.7l14.9,55.4
		l55.4-14.9l-14.8-55.5L474.5-1004.7z M476.2-1003.7l52.7-14.1l14.1,52.7L490.4-951L476.2-1003.7z"/>
	<path id="path5695" inkscape:connector-curvature="0" sodipodi:nodetypes="ccccc" class="st0" d="M488.6-1007l14.3,53.4l1.4-0.4
		l-14.3-53.4L488.6-1007z"/>
	<path id="path5697" inkscape:connector-curvature="0" sodipodi:nodetypes="ccccc" class="st0" d="M481.7-1005.2l14.3,53.4l1.4-0.4
		l-14.3-53.4L481.7-1005.2z"/>
	<path id="path5699" inkscape:connector-curvature="0" sodipodi:nodetypes="ccccc" class="st0" d="M509.1-1012.5l14.3,53.4l1.4-0.4
		l-14.3-53.4L509.1-1012.5z"/>
	<path id="path5701" inkscape:connector-curvature="0" sodipodi:nodetypes="ccccc" class="st0" d="M495.4-1008.9l14.3,53.4l1.4-0.4
		l-14.3-53.4L495.4-1008.9z"/>
	<path id="path5703" inkscape:connector-curvature="0" sodipodi:nodetypes="ccccc" class="st0" d="M502.3-1010.7l14.3,53.4l1.4-0.4
		l-14.3-53.4L502.3-1010.7z"/>
	<path id="path5705" inkscape:connector-curvature="0" sodipodi:nodetypes="ccccc" class="st0" d="M522.1-1016l14.3,53.4l1.4-0.4
		l-14.3-53.4L522.1-1016z"/>
	<path id="path5707" inkscape:connector-curvature="0" sodipodi:nodetypes="ccccc" class="st0" d="M515.3-1014.2l14.3,53.4l1.4-0.4
		l-14.3-53.4L515.3-1014.2z"/>
</g>
<rect id="rect5711" x="568.5" y="-397.7" transform="matrix(0.866 -0.5 0.5 0.866 264.1229 249.8416)" class="st4" width="59.5" height="59.5"/>
<g id="g5713" transform="translate(17.716367,616.53543)">
	
		<rect id="rect5715" x="551.7" y="-1012.9" transform="matrix(0.866 -0.5 0.5 0.866 569.9905 158.124)" width="56.7" height="56.7"/>
	<path id="path5717" inkscape:connector-curvature="0" sodipodi:nodetypes="cccccccccc" class="st0" d="M541.3-994.9l28.7,49.7
		l49.7-28.7l-28.7-49.8L541.3-994.9z M543.3-994.4l47.3-27.3l27.3,47.3l-47.3,27.3L543.3-994.4z"/>
	<path id="path5719" inkscape:connector-curvature="0" sodipodi:nodetypes="ccccc" class="st0" d="M554.3-1000.8l27.6,47.9l1.2-0.7
		l-27.6-47.9L554.3-1000.8z"/>
	<path id="path5721" inkscape:connector-curvature="0" sodipodi:nodetypes="ccccc" class="st0" d="M548.2-997.2l27.6,47.9l1.2-0.7
		L549.4-998L548.2-997.2z"/>
	<path id="path5723" inkscape:connector-curvature="0" sodipodi:nodetypes="ccccc" class="st0" d="M572.7-1011.4l27.6,47.9l1.2-0.7
		l-27.6-47.9L572.7-1011.4z"/>
	<path id="path5725" inkscape:connector-curvature="0" sodipodi:nodetypes="ccccc" class="st0" d="M560.5-1004.3l27.6,47.9l1.2-0.7
		l-27.6-47.9L560.5-1004.3z"/>
	<path id="path5727" inkscape:connector-curvature="0" sodipodi:nodetypes="ccccc" class="st0" d="M566.6-1007.9l27.6,47.9l1.2-0.7
		l-27.6-47.9L566.6-1007.9z"/>
	<path id="path5729" inkscape:connector-curvature="0" sodipodi:nodetypes="ccccc" class="st0" d="M584.4-1018.2l27.6,47.9l1.2-0.7
		l-27.6-47.9L584.4-1018.2z"/>
	<path id="path5731" inkscape:connector-curvature="0" sodipodi:nodetypes="ccccc" class="st0" d="M578.3-1014.6l27.6,47.9l1.2-0.7
		l-27.6-47.9L578.3-1014.6z"/>
</g>
<rect id="rect5735" x="649.1" y="-397.7" transform="matrix(0.7071 -0.7071 0.7071 0.7071 459.0108 372.2716)" class="st4" width="59.5" height="59.5"/>
<g id="g5737" transform="translate(17.716367,616.53543)">
	
		<rect id="rect5739" x="632.3" y="-1012.8" transform="matrix(0.7071 -0.7071 0.7071 0.7071 889.5952 178.8259)" width="56.7" height="56.7"/>
	<path id="path5741" inkscape:connector-curvature="0" sodipodi:nodetypes="cccccccccc" class="st0" d="M620.6-984.4l40.6,40.6
		l40.6-40.6l-40.6-40.7L620.6-984.4z M622.6-984.4l38.6-38.6l38.6,38.6l-38.6,38.6L622.6-984.4z"/>
	<path id="path5743" inkscape:connector-curvature="0" sodipodi:nodetypes="ccccc" class="st0" d="M631.6-993.4l39.1,39.1l1-1
		l-39.1-39.1L631.6-993.4z"/>
	<path id="path5745" inkscape:connector-curvature="0" sodipodi:nodetypes="ccccc" class="st0" d="M626.6-988.4l39.1,39.1l1-1
		l-39.1-39.1L626.6-988.4z"/>
	<path id="path5747" inkscape:connector-curvature="0" sodipodi:nodetypes="ccccc" class="st0" d="M646.6-1008.5l39.1,39.1l1-1
		l-39.1-39.1L646.6-1008.5z"/>
	<path id="path5749" inkscape:connector-curvature="0" sodipodi:nodetypes="ccccc" class="st0" d="M636.6-998.5l39.1,39.1l1-1
		l-39.1-39.1L636.6-998.5z"/>
	<path id="path5751" inkscape:connector-curvature="0" sodipodi:nodetypes="ccccc" class="st0" d="M641.6-1003.5l39.1,39.1l1-1
		l-39.1-39.1L641.6-1003.5z"/>
	<path id="path5753" inkscape:connector-curvature="0" sodipodi:nodetypes="ccccc" class="st0" d="M656.1-1018l39.1,39.1l1-1
		l-39.1-39.1L656.1-1018z"/>
	<path id="path5755" inkscape:connector-curvature="0" sodipodi:nodetypes="ccccc" class="st0" d="M651.1-1013l39.1,39.1l1-1
		l-39.1-39.1L651.1-1013z"/>
</g>
<rect id="rect5480_1_" x="406.9" y="-392.1" class="st4" width="59.5" height="59.5"/>
<g id="g5514_1_" transform="translate(17.716367,616.53543)">
	<rect id="rect5476_1_" x="390.2" y="-1007.6" width="56.7" height="56.7"/>
	<path id="path5478_1_" inkscape:connector-curvature="0" sodipodi:nodetypes="cccccccccc" class="st0" d="M390.2-1007.6v57.4h57.4
		l0.1-57.5L390.2-1007.6z M391.6-1006.2h54.6v54.6l-54.6,0L391.6-1006.2z"/>
	<path id="path5482_1_" inkscape:connector-curvature="0" sodipodi:nodetypes="ccccc" class="st0" d="M404.4-1006.2l0,55.3h1.4
		l0-55.3H404.4z"/>
	<path id="path5484_1_" inkscape:connector-curvature="0" sodipodi:nodetypes="ccccc" class="st0" d="M397.1-1006l0,55.3h1.4l0-55.3
		H397.1z"/>
	<path id="path5486_1_" inkscape:connector-curvature="0" sodipodi:nodetypes="ccccc" class="st0" d="M425.7-1006.2l0,55.3h1.4
		l0-55.3H425.7z"/>
	<path id="path5488_1_" inkscape:connector-curvature="0" sodipodi:nodetypes="ccccc" class="st0" d="M411.5-1006.2l0,55.3h1.4
		l0-55.3H411.5z"/>
	<path id="path5490_1_" inkscape:connector-curvature="0" sodipodi:nodetypes="ccccc" class="st0" d="M418.6-1006.2l0,55.3h1.4
		l0-55.3H418.6z"/>
	<path id="path5506_1_" inkscape:connector-curvature="0" sodipodi:nodetypes="ccccc" class="st0" d="M439.1-1006.2l0,55.3h1.4
		l0-55.3H439.1z"/>
	<path id="path5508_1_" inkscape:connector-curvature="0" sodipodi:nodetypes="ccccc" class="st0" d="M432-1006.2l0,55.3h1.4l0-55.3
		H432z"/>
</g>
<g>
	<rect id="rect5480" x="801.6" y="-446.2" class="st5" width="141.7" height="141.7"/>
	<g>
		<rect x="812.9" y="-442.6" class="st0" width="1.4" height="134.6"/>
		<rect x="821.3" y="-442.6" class="st0" width="1.4" height="134.6"/>
		<rect x="829.7" y="-442.6" class="st0" width="1.4" height="134.6"/>
		<rect x="838.1" y="-442.6" class="st0" width="1.4" height="134.6"/>
		<rect x="846.6" y="-442.6" class="st0" width="1.4" height="134.6"/>
		<rect x="855" y="-442.6" class="st0" width="1.4" height="134.6"/>
		<rect x="863.4" y="-442.6" class="st0" width="1.4" height="134.6"/>
		<rect x="871.8" y="-442.6" class="st0" width="1.4" height="134.6"/>
		<rect x="880.2" y="-442.6" class="st0" width="1.4" height="134.6"/>
		<rect x="888.6" y="-442.6" class="st0" width="1.4" height="134.6"/>
		<rect x="897" y="-442.6" class="st0" width="1.4" height="134.6"/>
		<rect x="905.4" y="-442.6" class="st0" width="1.4" height="134.6"/>
		<rect x="913.9" y="-442.6" class="st0" width="1.4" height="134.6"/>
		<rect x="922.3" y="-442.6" class="st0" width="1.4" height="134.6"/>
		<rect x="930.7" y="-442.6" class="st0" width="1.4" height="134.6"/>
	</g>
	<rect x="804.5" y="-443.3" class="st0" width="1.4" height="136.1"/>
	<rect x="939.1" y="-443.3" class="st0" width="1.4" height="136.1"/>
	
		<rect x="871.8" y="-510.7" transform="matrix(-1.836970e-16 1 -1 -1.836970e-16 429.874 -1315.1339)" class="st0" width="1.4" height="136.1"/>
	
		<rect x="871.8" y="-376" transform="matrix(-1.836970e-16 1 -1 -1.836970e-16 564.5197 -1180.4882)" class="st0" width="1.4" height="136.1"/>
</g>
<g>
	
		<rect id="rect5480_2_" x="965" y="-449.3" transform="matrix(0.9659 -0.2588 0.2588 0.9659 133.2425 255.1978)" class="st5" width="141.7" height="141.7"/>
	<g>
		
			<rect x="978.2" y="-430.5" transform="matrix(0.9659 -0.2588 0.2588 0.9659 127.3591 240.994)" class="st0" width="1.4" height="134.6"/>
		
			<rect x="986.4" y="-432.7" transform="matrix(0.9659 -0.2588 0.2588 0.9659 128.1996 243.0231)" class="st0" width="1.4" height="134.6"/>
		
			<rect x="994.5" y="-434.9" transform="matrix(0.9659 -0.2588 0.2588 0.9659 129.0401 245.0522)" class="st0" width="1.4" height="134.6"/>
		
			<rect x="1002.6" y="-437.1" transform="matrix(0.9659 -0.2588 0.2588 0.9659 129.8806 247.0814)" class="st0" width="1.4" height="134.6"/>
		
			<rect x="1010.7" y="-439.2" transform="matrix(0.9659 -0.2588 0.2588 0.9659 130.721 249.1105)" class="st0" width="1.4" height="134.6"/>
		
			<rect x="1018.9" y="-441.4" transform="matrix(0.9659 -0.2588 0.2588 0.9659 131.5615 251.1396)" class="st0" width="1.4" height="134.6"/>
		
			<rect x="1027" y="-443.6" transform="matrix(0.9659 -0.2588 0.2588 0.9659 132.402 253.1687)" class="st0" width="1.4" height="134.6"/>
		
			<rect x="1035.1" y="-445.8" transform="matrix(0.9659 -0.2588 0.2588 0.9659 133.2425 255.1978)" class="st0" width="1.4" height="134.6"/>
		
			<rect x="1043.3" y="-447.9" transform="matrix(0.9659 -0.2588 0.2588 0.9659 134.083 257.2269)" class="st0" width="1.4" height="134.6"/>
		
			<rect x="1051.4" y="-450.1" transform="matrix(0.9659 -0.2588 0.2588 0.9659 134.9235 259.256)" class="st0" width="1.4" height="134.6"/>
		
			<rect x="1059.5" y="-452.3" transform="matrix(0.9659 -0.2588 0.2588 0.9659 135.7639 261.2851)" class="st0" width="1.4" height="134.6"/>
		
			<rect x="1067.6" y="-454.5" transform="matrix(0.9659 -0.2588 0.2588 0.9659 136.6044 263.3142)" class="st0" width="1.4" height="134.6"/>
		
			<rect x="1075.8" y="-456.7" transform="matrix(0.9659 -0.2588 0.2588 0.9659 137.4449 265.3433)" class="st0" width="1.4" height="134.6"/>
		
			<rect x="1083.9" y="-458.8" transform="matrix(0.9659 -0.2588 0.2588 0.9659 138.2854 267.3724)" class="st0" width="1.4" height="134.6"/>
		
			<rect x="1092" y="-461" transform="matrix(0.9659 -0.2588 0.2588 0.9659 139.1259 269.4016)" class="st0" width="1.4" height="134.6"/>
	</g>
	
		<rect x="970.1" y="-429" transform="matrix(0.9659 -0.2588 0.2588 0.9659 126.5169 238.9608)" class="st0" width="1.4" height="136.1"/>
	
		<rect x="1100.2" y="-463.9" transform="matrix(0.9659 -0.2588 0.2588 0.9659 139.9681 271.4348)" class="st0" width="1.4" height="136.1"/>
	
		<rect x="1017.7" y="-511.5" transform="matrix(0.2588 0.9659 -0.9659 0.2588 326.4664 -1312.3977)" class="st0" width="1.4" height="136.1"/>
	
		<rect x="1052.5" y="-381.4" transform="matrix(0.2588 0.9659 -0.9659 0.2588 477.9219 -1249.6627)" class="st0" width="1.4" height="136.1"/>
</g>
<g>
	
		<rect id="rect5480_3_" x="1133.7" y="-449.3" transform="matrix(0.866 -0.5 0.5 0.866 350.6036 551.5906)" class="st5" width="141.7" height="141.7"/>
	<g>
		
			<rect x="1152.9" y="-416.3" transform="matrix(0.866 -0.5 0.5 0.866 329.0474 530.0344)" class="st0" width="1.4" height="134.6"/>
		
			<rect x="1160.2" y="-420.5" transform="matrix(0.866 -0.5 0.5 0.866 332.1269 533.1138)" class="st0" width="1.4" height="134.6"/>
		
			<rect x="1167.4" y="-424.7" transform="matrix(0.866 -0.5 0.5 0.866 335.2063 536.1933)" class="st0" width="1.4" height="134.6"/>
		
			<rect x="1174.7" y="-428.9" transform="matrix(0.866 -0.5 0.5 0.866 338.2858 539.2728)" class="st0" width="1.4" height="134.6"/>
		<rect x="1182" y="-433.1" transform="matrix(0.866 -0.5 0.5 0.866 341.3652 542.3522)" class="st0" width="1.4" height="134.6"/>
		
			<rect x="1189.3" y="-437.3" transform="matrix(0.866 -0.5 0.5 0.866 344.4447 545.4316)" class="st0" width="1.4" height="134.6"/>
		
			<rect x="1196.6" y="-441.6" transform="matrix(0.866 -0.5 0.5 0.866 347.5241 548.5111)" class="st0" width="1.4" height="134.6"/>
		
			<rect x="1203.9" y="-445.8" transform="matrix(0.866 -0.5 0.5 0.866 350.6036 551.5906)" class="st0" width="1.4" height="134.6"/>
		<rect x="1211.2" y="-450" transform="matrix(0.866 -0.5 0.5 0.866 353.683 554.67)" class="st0" width="1.4" height="134.6"/>
		
			<rect x="1218.4" y="-454.2" transform="matrix(0.866 -0.5 0.5 0.866 356.7625 557.7495)" class="st0" width="1.4" height="134.6"/>
		
			<rect x="1225.7" y="-458.4" transform="matrix(0.866 -0.5 0.5 0.866 359.8419 560.8289)" class="st0" width="1.4" height="134.6"/>
		<rect x="1233" y="-462.6" transform="matrix(0.866 -0.5 0.5 0.866 362.9214 563.9084)" class="st0" width="1.4" height="134.6"/>
		
			<rect x="1240.3" y="-466.8" transform="matrix(0.866 -0.5 0.5 0.866 366.0009 566.9879)" class="st0" width="1.4" height="134.6"/>
		<rect x="1247.6" y="-471" transform="matrix(0.866 -0.5 0.5 0.866 369.0803 570.0673)" class="st0" width="1.4" height="134.6"/>
		
			<rect x="1254.9" y="-475.2" transform="matrix(0.866 -0.5 0.5 0.866 372.1598 573.1467)" class="st0" width="1.4" height="134.6"/>
	</g>
	<rect x="1145.6" y="-412.8" transform="matrix(0.866 -0.5 0.5 0.866 325.9618 526.9487)" class="st0" width="1.4" height="136.1"/>
	<rect x="1262.2" y="-480.1" transform="matrix(0.866 -0.5 0.5 0.866 375.2454 576.2324)" class="st0" width="1.4" height="136.1"/>
	
		<rect x="1170.2" y="-504.8" transform="matrix(0.5 0.866 -0.866 0.5 207.2307 -1232.4213)" class="st0" width="1.4" height="136.1"/>
	
		<rect x="1237.5" y="-388.2" transform="matrix(0.5 0.866 -0.866 0.5 341.8764 -1232.4213)" class="st0" width="1.4" height="136.1"/>
</g>
<g>
	
		<rect id="rect5480_4_" x="1322.2" y="-449.3" transform="matrix(0.7071 -0.7071 0.7071 0.7071 675.6185 874.2075)" class="st5" width="141.7" height="141.7"/>
	<g>
		
			<rect x="1350.7" y="-404.1" transform="matrix(0.7071 -0.7071 0.7071 0.7071 633.9752 856.9582)" class="st0" width="1.4" height="134.6"/>
		
			<rect x="1356.7" y="-410.1" transform="matrix(0.7071 -0.7071 0.7071 0.7071 639.9243 859.4224)" class="st0" width="1.4" height="134.6"/>
		
			<rect x="1362.6" y="-416" transform="matrix(0.7071 -0.7071 0.7071 0.7071 645.8733 861.8865)" class="st0" width="1.4" height="134.6"/>
		
			<rect x="1368.6" y="-422" transform="matrix(0.7071 -0.7071 0.7071 0.7071 651.8223 864.3507)" class="st0" width="1.4" height="134.6"/>
		
			<rect x="1374.5" y="-427.9" transform="matrix(0.7071 -0.7071 0.7071 0.7071 657.7714 866.8149)" class="st0" width="1.4" height="134.6"/>
		
			<rect x="1380.5" y="-433.9" transform="matrix(0.7071 -0.7071 0.7071 0.7071 663.7205 869.2791)" class="st0" width="1.4" height="134.6"/>
		
			<rect x="1386.4" y="-439.8" transform="matrix(0.7071 -0.7071 0.7071 0.7071 669.6695 871.7433)" class="st0" width="1.4" height="134.6"/>
		
			<rect x="1392.4" y="-445.8" transform="matrix(0.7071 -0.7071 0.7071 0.7071 675.6185 874.2075)" class="st0" width="1.4" height="134.6"/>
		
			<rect x="1398.3" y="-451.7" transform="matrix(0.7071 -0.7071 0.7071 0.7071 681.5676 876.6716)" class="st0" width="1.4" height="134.6"/>
		
			<rect x="1404.3" y="-457.7" transform="matrix(0.7071 -0.7071 0.7071 0.7071 687.5166 879.1358)" class="st0" width="1.4" height="134.6"/>
		
			<rect x="1410.2" y="-463.6" transform="matrix(0.7071 -0.7071 0.7071 0.7071 693.4657 881.6)" class="st0" width="1.4" height="134.6"/>
		
			<rect x="1416.2" y="-469.6" transform="matrix(0.7071 -0.7071 0.7071 0.7071 699.4147 884.0641)" class="st0" width="1.4" height="134.6"/>
		
			<rect x="1422.1" y="-475.5" transform="matrix(0.7071 -0.7071 0.7071 0.7071 705.3638 886.5284)" class="st0" width="1.4" height="134.6"/>
		
			<rect x="1428.1" y="-481.5" transform="matrix(0.7071 -0.7071 0.7071 0.7071 711.3128 888.9926)" class="st0" width="1.4" height="134.6"/>
		
			<rect x="1434" y="-487.4" transform="matrix(0.7071 -0.7071 0.7071 0.7071 717.2618 891.4567)" class="st0" width="1.4" height="134.6"/>
	</g>
	
		<rect x="1344.8" y="-398.9" transform="matrix(0.7071 -0.7071 0.7071 0.7071 628.0141 854.489)" class="st0" width="1.4" height="136.1"/>
	
		<rect x="1440" y="-494.1" transform="matrix(0.7071 -0.7071 0.7071 0.7071 723.223 893.9259)" class="st0" width="1.4" height="136.1"/>
	
		<rect x="1344.8" y="-494.1" transform="matrix(0.7071 0.7071 -0.7071 0.7071 92.8192 -1076.1749)" class="st0" width="1.4" height="136.1"/>
	
		<rect x="1440" y="-398.9" transform="matrix(0.7071 0.7071 -0.7071 0.7071 188.0282 -1115.6117)" class="st0" width="1.4" height="136.1"/>
</g>
<g>
	
		<rect id="rect5480_5_" x="1521.4" y="-445.2" transform="matrix(0.5 -0.866 0.866 0.5 1120.2784 1191.7465)" class="st5" width="141.7" height="141.7"/>
	<g>
		
			<rect x="1562.1" y="-390.6" transform="matrix(0.5 -0.866 0.866 0.5 1061.3859 1191.7463)" class="st0" width="1.4" height="134.6"/>
		
			<rect x="1566.3" y="-397.9" transform="matrix(0.5 -0.866 0.866 0.5 1069.7992 1191.7463)" class="st0" width="1.4" height="134.6"/>
		
			<rect x="1570.5" y="-405.2" transform="matrix(0.5 -0.866 0.866 0.5 1078.2124 1191.7463)" class="st0" width="1.4" height="134.6"/>
		
			<rect x="1574.7" y="-412.5" transform="matrix(0.5 -0.866 0.866 0.5 1086.6256 1191.7463)" class="st0" width="1.4" height="134.6"/>
		
			<rect x="1578.9" y="-419.8" transform="matrix(0.5 -0.866 0.866 0.5 1095.0388 1191.7463)" class="st0" width="1.4" height="134.6"/>
		
			<rect x="1583.1" y="-427.1" transform="matrix(0.5 -0.866 0.866 0.5 1103.452 1191.7465)" class="st0" width="1.4" height="134.6"/>
		
			<rect x="1587.3" y="-434.4" transform="matrix(0.5 -0.866 0.866 0.5 1111.8652 1191.7465)" class="st0" width="1.4" height="134.6"/>
		
			<rect x="1591.5" y="-441.6" transform="matrix(0.5 -0.866 0.866 0.5 1120.2784 1191.7465)" class="st0" width="1.4" height="134.6"/>
		
			<rect x="1595.7" y="-448.9" transform="matrix(0.5 -0.866 0.866 0.5 1128.6918 1191.7465)" class="st0" width="1.4" height="134.6"/>
		
			<rect x="1599.9" y="-456.2" transform="matrix(0.5 -0.866 0.866 0.5 1137.105 1191.7465)" class="st0" width="1.4" height="134.6"/>
		
			<rect x="1604.1" y="-463.5" transform="matrix(0.5 -0.866 0.866 0.5 1145.5182 1191.7465)" class="st0" width="1.4" height="134.6"/>
		
			<rect x="1608.3" y="-470.8" transform="matrix(0.5 -0.866 0.866 0.5 1153.9314 1191.7465)" class="st0" width="1.4" height="134.6"/>
		
			<rect x="1612.5" y="-478.1" transform="matrix(0.5 -0.866 0.866 0.5 1162.3446 1191.7465)" class="st0" width="1.4" height="134.6"/>
		
			<rect x="1616.8" y="-485.4" transform="matrix(0.5 -0.866 0.866 0.5 1170.7578 1191.7465)" class="st0" width="1.4" height="134.6"/>
		<rect x="1621" y="-492.6" transform="matrix(0.5 -0.866 0.866 0.5 1179.171 1191.7465)" class="st0" width="1.4" height="134.6"/>
	</g>
	<rect x="1557.9" y="-384" transform="matrix(0.5 -0.866 0.866 0.5 1052.9557 1191.7463)" class="st0" width="1.4" height="136.1"/>
	
		<rect x="1625.2" y="-500.7" transform="matrix(0.5 -0.866 0.866 0.5 1187.6013 1191.7465)" class="st0" width="1.4" height="136.1"/>
	<rect x="1533.2" y="-476" transform="matrix(0.866 0.5 -0.5 0.866 1.5172 -821.6187)" class="st0" width="1.4" height="136.1"/>
	<rect x="1649.8" y="-408.7" transform="matrix(0.866 0.5 -0.5 0.866 50.801 -870.9025)" class="st0" width="1.4" height="136.1"/>
</g>
<g>
	
		<rect id="rect5480_6_" x="1692.1" y="-445.2" transform="matrix(0.2588 -0.9659 0.9659 0.2588 1668.2305 1425.4474)" class="st5" width="141.7" height="141.7"/>
	<g>
		
			<rect x="1747" y="-384.8" transform="matrix(0.2588 -0.9659 0.9659 0.2588 1601.9854 1452.8868)" class="st0" width="1.4" height="134.6"/>
		
			<rect x="1749.2" y="-392.9" transform="matrix(0.2588 -0.9659 0.9659 0.2588 1611.449 1448.9669)" class="st0" width="1.4" height="134.6"/>
		
			<rect x="1751.4" y="-401" transform="matrix(0.2588 -0.9659 0.9659 0.2588 1620.9126 1445.047)" class="st0" width="1.4" height="134.6"/>
		
			<rect x="1753.5" y="-409.1" transform="matrix(0.2588 -0.9659 0.9659 0.2588 1630.3761 1441.1271)" class="st0" width="1.4" height="134.6"/>
		
			<rect x="1755.7" y="-417.3" transform="matrix(0.2588 -0.9659 0.9659 0.2588 1639.8397 1437.2072)" class="st0" width="1.4" height="134.6"/>
		
			<rect x="1757.9" y="-425.4" transform="matrix(0.2588 -0.9659 0.9659 0.2588 1649.3032 1433.2872)" class="st0" width="1.4" height="134.6"/>
		
			<rect x="1760.1" y="-433.5" transform="matrix(0.2588 -0.9659 0.9659 0.2588 1658.7668 1429.3673)" class="st0" width="1.4" height="134.6"/>
		
			<rect x="1762.2" y="-441.6" transform="matrix(0.2588 -0.9659 0.9659 0.2588 1668.2305 1425.4474)" class="st0" width="1.4" height="134.6"/>
		
			<rect x="1764.4" y="-449.8" transform="matrix(0.2588 -0.9659 0.9659 0.2588 1677.694 1421.5275)" class="st0" width="1.4" height="134.6"/>
		
			<rect x="1766.6" y="-457.9" transform="matrix(0.2588 -0.9659 0.9659 0.2588 1687.1576 1417.6074)" class="st0" width="1.4" height="134.6"/>
		
			<rect x="1768.8" y="-466" transform="matrix(0.2588 -0.9659 0.9659 0.2588 1696.6211 1413.6875)" class="st0" width="1.4" height="134.6"/>
		
			<rect x="1771" y="-474.1" transform="matrix(0.2588 -0.9659 0.9659 0.2588 1706.0847 1409.7676)" class="st0" width="1.4" height="134.6"/>
		
			<rect x="1773.1" y="-482.3" transform="matrix(0.2588 -0.9659 0.9659 0.2588 1715.5483 1405.8477)" class="st0" width="1.4" height="134.6"/>
		
			<rect x="1775.3" y="-490.4" transform="matrix(0.2588 -0.9659 0.9659 0.2588 1725.0118 1401.9277)" class="st0" width="1.4" height="134.6"/>
		
			<rect x="1777.5" y="-498.5" transform="matrix(0.2588 -0.9659 0.9659 0.2588 1734.4755 1398.0078)" class="st0" width="1.4" height="134.6"/>
	</g>
	
		<rect x="1744.8" y="-377.3" transform="matrix(0.2588 -0.9659 0.9659 0.2588 1592.5027 1456.8148)" class="st0" width="1.4" height="136.1"/>
	
		<rect x="1779.7" y="-507.4" transform="matrix(0.2588 -0.9659 0.9659 0.2588 1743.9581 1394.08)" class="st0" width="1.4" height="136.1"/>
	
		<rect x="1697.2" y="-459.8" transform="matrix(0.9659 0.2588 -0.2588 0.9659 -43.5346 -452.8045)" class="st0" width="1.4" height="136.1"/>
	
		<rect x="1827.3" y="-424.9" transform="matrix(0.9659 0.2588 -0.2588 0.9659 -30.0835 -485.2785)" class="st0" width="1.4" height="136.1"/>
</g>
<g>
	<rect id="rect5480_7_" x="1854.7" y="-445.2" class="st5" width="141.7" height="141.7"/>
	<g>
		
			<rect x="1924.9" y="-382.7" transform="matrix(3.267955e-07 -1 1 3.267955e-07 2240.9983 1610.1508)" class="st0" width="1.4" height="134.6"/>
		
			<rect x="1924.9" y="-391.2" transform="matrix(3.267942e-07 -1 1 3.267942e-07 2249.4116 1601.7374)" class="st0" width="1.4" height="134.6"/>
		
			<rect x="1924.9" y="-399.6" transform="matrix(3.267942e-07 -1 1 3.267942e-07 2257.8247 1593.3242)" class="st0" width="1.4" height="134.6"/>
		
			<rect x="1924.9" y="-408" transform="matrix(3.267968e-07 -1 1 3.267968e-07 2266.238 1584.911)" class="st0" width="1.4" height="134.6"/>
		
			<rect x="1924.9" y="-416.4" transform="matrix(3.267955e-07 -1 1 3.267955e-07 2274.6514 1576.4978)" class="st0" width="1.4" height="134.6"/>
		
			<rect x="1924.9" y="-424.8" transform="matrix(3.267942e-07 -1 1 3.267942e-07 2283.0645 1568.0846)" class="st0" width="1.4" height="134.6"/>
		
			<rect x="1924.9" y="-433.2" transform="matrix(3.267929e-07 -1 1 3.267929e-07 2291.4778 1559.6714)" class="st0" width="1.4" height="134.6"/>
		
			<rect x="1924.9" y="-441.6" transform="matrix(3.267955e-07 -1 1 3.267955e-07 2299.8909 1551.2582)" class="st0" width="1.4" height="134.6"/>
		
			<rect x="1924.9" y="-450.1" transform="matrix(3.267955e-07 -1 1 3.267955e-07 2308.3042 1542.845)" class="st0" width="1.4" height="134.6"/>
		
			<rect x="1924.9" y="-458.5" transform="matrix(3.267942e-07 -1 1 3.267942e-07 2316.7175 1534.4316)" class="st0" width="1.4" height="134.6"/>
		
			<rect x="1924.9" y="-466.9" transform="matrix(3.267929e-07 -1 1 3.267929e-07 2325.1306 1526.0184)" class="st0" width="1.4" height="134.6"/>
		
			<rect x="1924.9" y="-475.3" transform="matrix(3.267968e-07 -1 1 3.267968e-07 2333.5439 1517.6052)" class="st0" width="1.4" height="134.6"/>
		
			<rect x="1924.9" y="-483.7" transform="matrix(3.267955e-07 -1 1 3.267955e-07 2341.957 1509.192)" class="st0" width="1.4" height="134.6"/>
		
			<rect x="1924.9" y="-492.1" transform="matrix(3.267955e-07 -1 1 3.267955e-07 2350.3704 1500.7788)" class="st0" width="1.4" height="134.6"/>
		
			<rect x="1924.9" y="-500.5" transform="matrix(3.267955e-07 -1 1 3.267955e-07 2358.7837 1492.3656)" class="st0" width="1.4" height="134.6"/>
	</g>
	
		<rect x="1924.9" y="-375" transform="matrix(3.267955e-07 -1 1 3.267955e-07 2232.5681 1618.5809)" class="st0" width="1.4" height="136.1"/>
	
		<rect x="1924.9" y="-509.7" transform="matrix(3.267942e-07 -1 1 3.267942e-07 2367.2139 1483.9353)" class="st0" width="1.4" height="136.1"/>
	<rect x="1857.5" y="-442.3" class="st0" width="1.4" height="136.1"/>
	<rect x="1992.2" y="-442.3" class="st0" width="1.4" height="136.1"/>
</g>
<rect id="rect7572_1_" x="-473.2" y="435.4" class="st4" width="59.5" height="59.5"/>
<g id="g5571_1_">
	<rect id="rect7587_1_" x="-469" y="459.5" class="st3" width="11.3" height="11.3"/>
	<rect id="rect7589_1_" x="-429.3" y="459.5" class="st3" width="11.3" height="11.3"/>
	<rect id="rect7591_1_" x="-469" y="482.2" class="st3" width="11.3" height="11.3"/>
	<rect id="rect7593_1_" x="-452" y="448.2" class="st3" width="17" height="11.3"/>
	<rect id="rect7595_1_" x="-469" y="436.8" class="st3" width="11.3" height="11.3"/>
	<rect id="rect7597_1_" x="-429.3" y="436.8" class="st3" width="11.3" height="11.3"/>
	<rect id="rect5223_1_" x="-429.3" y="482.2" class="st3" width="11.3" height="11.3"/>
	<rect id="rect5225_1_" x="-452" y="470.8" class="st3" width="17" height="11.3"/>
</g>
<path id="path5269_1_" inkscape:connector-curvature="0" sodipodi:nodetypes="ccccccccc" class="st3" d="M-454.8,431.1v-56.7h11.3
	v19.8h11.3v17h-11.3v19.8H-454.8z"/>
<path id="path5271_1_" inkscape:connector-curvature="0" sodipodi:nodetypes="ccccccccccccccc" class="st3" d="M-454.8,252.6v-56.7
	h11.3v2.8l11.3,0v5.7v5.7l-11.3,0v28.3h11.3v5.7v5.7h-11.3v2.8L-454.8,252.6z"/>
<path id="path5273_1_" inkscape:connector-curvature="0" sodipodi:nodetypes="ccccccccccccccc" class="st3" d="M-454.8,371.6v-56.7
	h11.3v2.8h11.3v5.7v5.7h-11.3v28.3h11.3v5.7v5.7h-11.3v2.8L-454.8,371.6z"/>
<path id="path5275_1_" inkscape:connector-curvature="0" sodipodi:nodetypes="ccccccccc" class="st3" d="M-454.8,312.1v-56.7h11.3
	v19.8h11.3v17h-11.3v19.8H-454.8z"/>
<path id="path5277_1_" inkscape:connector-curvature="0" sodipodi:nodetypes="ccccccccccccccc" class="st3" d="M-454.8,193v-56.7
	h11.3v2.8h11.3v5.7v5.7h-11.3v28.3h11.3v5.7v5.7h-11.3v2.8H-454.8z"/>
<g>
	<path id="path5269" inkscape:connector-curvature="0" sodipodi:nodetypes="ccccccccc" class="st3" d="M161,231.3H24.9V220h39.7
		v-11.3h56.7V220H161V231.3z"/>
	<path id="path5273" inkscape:connector-curvature="0" sodipodi:nodetypes="ccccccccccccccc" class="st3" d="M24.9,194.5H161v11.3
		l-5.7,0v11.3h-14.7h-10.8v-11.3H56.1v11.3H45.4H30.6v-11.3l-5.7,0L24.9,194.5z"/>
	<g>
		<rect id="rect7572" x="22.1" y="285.2" class="st4" width="141.7" height="141.7"/>
		<rect id="rect7593" x="64.6" y="299.3" class="st3" width="56.7" height="11.3"/>
		<rect id="rect7595" x="30.6" y="288" class="st3" width="25.5" height="11.3"/>
		<rect id="rect7597" x="129.8" y="288" class="st3" width="25.5" height="11.3"/>
		<rect id="rect7593_2_" x="64.6" y="322" class="st3" width="56.7" height="11.3"/>
		<rect id="rect7595_2_" x="30.6" y="310.7" class="st3" width="25.5" height="11.3"/>
		<rect id="rect7597_2_" x="129.8" y="310.7" class="st3" width="25.5" height="11.3"/>
		<rect id="rect7593_4_" x="64.6" y="344.7" class="st3" width="56.7" height="11.3"/>
		<rect id="rect7595_4_" x="30.6" y="333.4" class="st3" width="25.5" height="11.3"/>
		<rect id="rect7597_4_" x="129.8" y="333.4" class="st3" width="25.5" height="11.3"/>
		<rect id="rect7593_3_" x="64.6" y="367.4" class="st3" width="56.7" height="11.3"/>
		<rect id="rect7595_3_" x="30.6" y="356" class="st3" width="25.5" height="11.3"/>
		<rect id="rect7597_3_" x="129.8" y="356" class="st3" width="25.5" height="11.3"/>
		<rect id="rect7593_6_" x="64.6" y="390" class="st3" width="56.7" height="11.3"/>
		<rect id="rect7595_6_" x="30.6" y="378.7" class="st3" width="25.5" height="11.3"/>
		<rect id="rect7597_6_" x="129.8" y="378.7" class="st3" width="25.5" height="11.3"/>
		<rect id="rect7593_5_" x="64.6" y="412.7" class="st3" width="56.7" height="11.3"/>
		<rect id="rect7595_5_" x="30.6" y="401.4" class="st3" width="25.5" height="11.3"/>
		<rect id="rect7597_5_" x="129.8" y="401.4" class="st3" width="25.5" height="11.3"/>
	</g>
	<path id="path5269_2_" inkscape:connector-curvature="0" sodipodi:nodetypes="ccccccccc" class="st3" d="M161,271H24.9v-11.3h39.7
		v-11.3h56.7v11.3H161V271z"/>
	<path id="path5273_2_" inkscape:connector-curvature="0" sodipodi:nodetypes="ccccccccccccccc" class="st3" d="M24.9,234.1H161
		v11.3h-5.7v11.3h-14.7h-10.8v-11.3H56.1v11.3H45.4H30.6v-11.3h-5.7L24.9,234.1z"/>
	<path id="path5269_3_" inkscape:connector-curvature="0" sodipodi:nodetypes="ccccccccc" class="st3" d="M161,188.8H24.9v-11.3
		l39.7,0v-11.3h56.7v11.3l39.7,0V188.8z"/>
	<path id="path5273_3_" inkscape:connector-curvature="0" sodipodi:nodetypes="ccccccccccccccc" class="st3" d="M24.9,151.9H161
		v11.3h-5.7v11.3h-14.7h-10.8v-11.3H56.1v11.3H45.4H30.6v-11.3h-5.7L24.9,151.9z"/>
	<path id="path5269_6_" inkscape:connector-curvature="0" sodipodi:nodetypes="ccccccccc" class="st3" d="M161,103.7H24.9V92.4
		l39.7,0V81.1h56.7v11.3l39.7,0V103.7z"/>
	<path id="path5273_6_" inkscape:connector-curvature="0" sodipodi:nodetypes="ccccccccccccccc" class="st3" d="M24.9,66.9H161v11.3
		h-5.7v11.3h-14.7h-10.8V78.2H56.1v11.3H45.4H30.6V78.2h-5.7L24.9,66.9z"/>
	<path id="path5269_5_" inkscape:connector-curvature="0" sodipodi:nodetypes="ccccccccc" class="st3" d="M161,143.4H24.9v-11.3
		h39.7v-11.3h56.7v11.3H161V143.4z"/>
	<path id="path5273_5_" inkscape:connector-curvature="0" sodipodi:nodetypes="ccccccccccccccc" class="st3" d="M24.9,106.6H161
		v11.3h-5.7v11.3h-14.7h-10.8v-11.3H56.1v11.3H45.4H30.6v-11.3h-5.7L24.9,106.6z"/>
	<path id="path5269_4_" inkscape:connector-curvature="0" sodipodi:nodetypes="ccccccccc" class="st3" d="M161,61.2H24.9V49.9
		l39.7,0V38.6l56.7,0v11.3l39.7,0V61.2z"/>
	<path id="path5273_4_" inkscape:connector-curvature="0" sodipodi:nodetypes="ccccccccccccccc" class="st3" d="M24.9,24.4H161v11.3
		l-5.7,0v11.3l-14.7,0l-10.8,0V35.7H56.1v11.3l-10.8,0l-14.7,0V35.7l-5.7,0L24.9,24.4z"/>
</g>
</svg>
